# xmcd
#
# Track frame offsets:
# 150
# 11626
# 27431
# 42794
# 54855
# 68981
# 83006
# 95164
# 112150
# 125757
#
# Disc length: 1820 seconds
#
#
# Revision: 0
# Processed by: cddbd v1.5.2PL0 Copyright (c) Steve Scherf et al.
# Submitted via: FreeRIP 2.96 
#
DISCID=85071a0a
DTITLE=Conway Twitty - The Legends [CD1]
DYEAR=2003
DGENRE=Country
TTITLE0=Hello Darlin
TTITLE1=Touch The Hand
TTITLE2=Lost Her Love On Our Last Date
TTITLE3=(Lying Here With) Linda On My Mind
TTITLE4=Play The Games That Daddies Play
TTITLE5=Baby's Gone
TTITLE6=I'm Not Through Loving You Yet
TTITLE7=Don't Cry Joni
TTITLE8=Danny Boy
TTITLE9=I Can't Believe She Gives It All To Me
EXTD=[CD1]
EXTT0=
EXTT1=
EXTT2=
EXTT3=
EXTT4=
EXTT5=
EXTT6=
EXTT7=
EXTT8=
EXTT9=
PLAYORDER=
